<?xml version="1.0" standalone="no"?>
<!DOCTYPE svg PUBLIC "-//W3C//DTD SVG 20010904//EN"
 "http://www.w3.org/TR/2001/REC-SVG-20010904/DTD/svg10.dtd">
<svg version="1.0" xmlns="http://www.w3.org/2000/svg"
 width="600.000000pt" height="600.000000pt" viewBox="0 0 600.000000 600.000000"
 preserveAspectRatio="xMidYMid meet">
<metadata>
Created by potrace 1.11, written by Peter Selinger 2001-2013
</metadata>
<g transform="translate(0.000000,600.000000) scale(0.100000,-0.100000)"
fill="#000000" stroke="none">
<path d="M2590 5990 c1328 -3 2620 -3 2870 0 250 3 -836 5 -2415 5 l-2870 0
2415 -5z"/>
<path d="M2845 5470 c-49 -4 -99 -10 -110 -13 -11 -3 -58 -11 -104 -17 -143
-17 -308 -114 -482 -282 -144 -140 -190 -208 -219 -328 -7 -25 -18 -55 -26
-67 -32 -51 -85 -155 -98 -195 -8 -24 -22 -83 -31 -133 -9 -49 -21 -112 -28
-140 -13 -60 -11 -291 4 -360 6 -27 22 -83 36 -123 25 -76 58 -218 73 -312 4
-30 11 -63 15 -72 6 -14 2 -18 -17 -18 -41 0 -72 -42 -70 -98 1 -56 38 -200
56 -222 32 -37 117 -207 123 -244 7 -50 19 -66 47 -66 38 0 47 -16 66 -111 20
-100 50 -176 99 -249 l31 -45 0 -146 0 -146 -82 -28 c-116 -38 -231 -94 -313
-150 -38 -26 -98 -67 -133 -91 -35 -24 -72 -46 -83 -49 -10 -4 -19 -10 -19
-14 0 -7 -133 -91 -143 -91 -2 0 -52 -29 -112 -65 -60 -36 -114 -65 -118 -65
-5 0 -60 -25 -122 -55 -62 -30 -115 -55 -119 -55 -45 0 -332 -191 -411 -274
-46 -48 -74 -91 -122 -187 -59 -121 -137 -334 -163 -449 -7 -30 -17 -62 -21
-72 -5 -9 -18 -85 -28 -170 -11 -84 -22 -160 -25 -168 -2 -8 -7 -34 -10 -57
l-6 -43 2205 0 2205 0 0 56 0 56 -127 -7 c-189 -10 -272 -10 -333 2 -53 10
-95 7 -240 -15 -36 -6 -93 -13 -128 -17 -62 -6 -63 -6 -46 14 10 11 21 18 26
15 4 -3 8 0 8 6 0 6 -12 11 -27 10 -65 -5 -61 2 37 51 14 7 33 19 42 27 9 8
49 22 89 33 84 22 95 29 48 30 l-34 0 43 19 c76 34 44 39 -35 6 -113 -47 -326
-163 -343 -186 -12 -17 -77 -24 -230 -26 -91 0 -200 -4 -242 -7 -59 -5 -77 -3
-75 6 1 7 -6 10 -18 7 -45 -11 -669 2 -699 15 -10 4 -68 2 -130 -5 -61 -7
-135 -14 -165 -17 -53 -4 -53 -4 -47 21 5 19 2 26 -14 31 -11 3 -20 13 -20 21
0 18 -18 18 -61 0 -19 -7 -57 -16 -86 -20 -28 -4 -78 -19 -110 -33 -49 -23
-77 -28 -175 -33 l-117 -5 -5 25 c-11 50 -18 53 -82 36 -55 -16 -140 -38 -174
-47 -13 -3 -15 13 -15 106 0 61 3 112 7 116 4 3 2 19 -4 36 -10 27 -8 42 14
105 67 190 107 312 113 341 4 18 13 39 20 47 7 8 20 39 31 68 10 28 22 52 27
52 4 0 5 -5 1 -12 -4 -6 -3 -8 4 -4 8 5 8 15 0 37 -8 22 -7 34 1 42 6 6 11 18
11 26 0 23 -38 -22 -57 -67 -8 -20 -32 -73 -54 -117 -21 -45 -39 -86 -39 -92
0 -11 -66 -207 -94 -278 -10 -26 -15 -33 -16 -19 0 11 7 35 16 52 15 31 11 58
-7 46 -5 -3 -7 -10 -4 -15 4 -5 0 -12 -8 -15 -18 -6 -29 -42 -16 -50 5 -3 9
-10 9 -15 0 -6 -5 -7 -12 -3 -7 5 -9 2 -5 -8 4 -11 -2 -18 -16 -22 -18 -5 -19
-8 -7 -15 8 -6 11 -13 7 -17 -4 -4 -15 0 -25 9 -18 16 -18 15 -17 -29 1 -25 8
-50 15 -54 9 -6 9 -9 0 -12 -12 -4 -23 -105 -21 -185 2 -47 -12 -83 -33 -83
-17 0 -26 164 -20 335 2 66 5 247 7 402 1 156 6 283 10 283 5 0 6 -4 3 -8 -2
-4 -1 -14 5 -22 6 -11 9 -7 10 15 l1 30 8 -35 c5 -19 10 -128 11 -242 1 -113
6 -212 10 -220 7 -10 9 -10 9 0 0 6 9 21 19 31 17 17 20 17 25 4 8 -21 8 -23
-9 -23 -8 0 -15 -5 -15 -11 0 -5 4 -7 10 -4 5 3 10 1 10 -4 0 -6 5 -11 10 -11
6 0 10 17 10 38 0 20 9 54 20 75 11 20 20 45 21 54 0 11 3 13 6 6 9 -23 21
-14 33 24 7 21 16 42 21 48 5 5 9 21 9 36 0 16 9 43 20 62 12 20 18 42 14 53
-4 14 -3 15 4 6 7 -10 16 -3 36 31 14 25 32 52 40 60 8 8 24 35 36 61 20 41
50 63 50 36 0 -5 11 -10 24 -10 13 0 27 -6 29 -12 4 -10 6 -10 6 0 1 6 8 12
16 12 11 0 15 -12 16 -45 1 -25 3 -49 4 -55 1 -5 3 -19 4 -29 0 -11 10 -23 22
-26 27 -9 33 -1 19 26 -7 12 -14 64 -16 115 l-4 93 33 -10 c41 -12 40 -12 33
6 -4 12 0 14 22 8 15 -4 35 -6 44 -5 10 0 21 -4 24 -10 5 -7 -2 -9 -19 -6 -18
4 -24 1 -20 -9 3 -7 20 -13 39 -13 22 0 37 -6 40 -15 13 -34 27 -2 74 173 17
61 27 82 39 82 15 0 16 -8 10 -62 -3 -35 -16 -90 -29 -123 -12 -33 -27 -76
-33 -95 -6 -19 -15 -38 -19 -41 -17 -11 -22 -80 -7 -90 10 -6 10 -9 2 -9 -7 0
-13 -12 -14 -27 0 -16 -3 -22 -6 -15 -8 21 -20 13 -21 -16 0 -23 3 -28 21 -27
18 2 22 8 22 36 0 25 5 35 18 37 14 3 17 10 13 27 -8 32 11 42 34 17 13 -13
30 -20 52 -19 33 2 33 2 33 52 0 39 3 49 15 46 22 -5 33 -4 55 5 18 7 19 6 6
-9 -16 -20 -9 -33 11 -21 7 5 24 9 38 10 63 3 71 5 65 14 -3 5 -25 7 -50 3
-30 -4 -45 -2 -45 5 0 14 39 25 71 20 20 -2 25 2 30 32 l6 35 2 -34 c1 -25 5
-32 16 -27 9 3 15 0 15 -9 0 -8 5 -15 10 -15 18 0 11 29 -10 40 -21 11 -17 40
6 40 24 0 18 65 -8 84 -17 12 -19 15 -6 14 26 -4 26 16 0 27 -12 5 -20 15 -18
22 3 7 0 16 -7 20 -24 16 -39 80 -42 183 -2 58 -1 95 1 82 4 -17 9 -20 18 -13
7 6 17 6 26 1 11 -7 11 -11 1 -24 -11 -13 -11 -16 3 -16 15 0 21 16 18 50 -15
155 -23 289 -18 315 7 37 52 63 72 41 5 -6 16 -62 22 -124 7 -62 17 -123 21
-135 5 -12 17 -49 27 -81 17 -52 28 -66 90 -120 39 -34 82 -69 96 -79 152
-108 224 -150 320 -187 149 -58 384 -59 568 -3 103 31 165 57 207 89 17 13 36
24 40 24 5 0 18 8 29 18 10 9 35 29 55 44 20 15 67 58 104 95 118 120 174 216
207 358 18 81 20 103 11 138 -12 46 -6 57 33 57 39 0 54 -30 53 -106 0 -38 -4
-94 -9 -124 -4 -30 -15 -106 -24 -169 -9 -62 -18 -117 -21 -121 -3 -5 2 -16
11 -24 14 -15 13 -16 -7 -14 -28 4 -32 -23 -17 -110 7 -42 16 -66 28 -72 12
-7 16 -17 13 -31 -4 -12 0 -25 8 -30 10 -6 7 -9 -13 -9 -15 0 -33 -7 -42 -15
-8 -8 -22 -15 -31 -15 -19 0 -59 -20 -123 -62 -30 -19 -38 -28 -22 -23 14 4
43 11 65 15 22 5 66 18 97 29 32 12 104 26 160 31 57 6 109 13 116 15 6 2 12
0 12 -4 0 -5 -6 -12 -12 -14 -10 -4 -10 -6 0 -6 7 -1 10 -5 7 -11 -3 -6 1 -7
10 -4 12 5 14 2 8 -12 -6 -16 -5 -17 9 -4 9 8 14 18 11 22 -2 4 3 5 11 2 10
-4 16 -1 16 7 0 11 3 11 10 -1 15 -24 12 -30 -16 -30 -14 0 -23 -4 -20 -9 3
-5 15 -7 26 -4 12 3 20 0 20 -6 0 -7 5 -9 10 -6 14 8 5 62 -40 257 -25 106
-25 108 -1 108 13 0 21 -9 26 -30 4 -16 12 -28 18 -27 7 1 11 -7 9 -22 -2 -15
0 -21 7 -17 6 4 11 15 12 24 1 10 4 8 8 -7 3 -13 15 -25 26 -27 11 -2 21 -8
23 -13 2 -6 12 -11 22 -11 12 0 21 12 28 37 9 33 10 35 11 11 1 -19 5 -26 15
-22 25 9 25 -23 0 -45 -21 -19 -24 -19 -24 -3 0 12 -6 9 -20 -13 l-19 -29 26
-17 c26 -18 46 -16 73 7 12 10 19 10 35 -3 13 -9 15 -14 5 -12 -8 2 -26 -3
-39 -10 -18 -10 -21 -15 -10 -21 7 -5 22 -4 33 3 12 6 27 10 34 9 7 -2 12 8
12 24 l0 28 19 -21 c11 -11 23 -36 26 -55 6 -30 4 -36 -14 -41 -24 -6 -29 -27
-6 -27 8 0 15 5 15 11 0 5 4 8 9 5 5 -4 12 0 14 6 3 8 6 6 6 -4 1 -10 -3 -18
-9 -18 -5 0 -10 -5 -10 -11 0 -5 5 -7 10 -4 6 3 16 3 23 -2 6 -4 20 -9 31 -10
14 -3 17 1 13 16 -3 12 1 22 9 25 9 3 14 -2 14 -14 0 -11 3 -20 6 -20 14 0 34
31 33 52 -1 17 -3 18 -6 5 -9 -36 -20 -6 -17 50 4 79 5 81 14 53 l8 -25 1 28
c1 22 6 27 26 27 18 0 23 -4 18 -16 -4 -11 -8 -12 -13 -4 -9 14 -4 -100 5
-129 3 -12 11 -21 17 -21 7 0 7 4 0 13 -9 10 -6 18 11 32 12 11 28 18 35 17
14 -3 16 24 2 33 -5 3 -10 1 -10 -4 0 -6 -4 -11 -10 -11 -16 0 -12 36 5 50 13
11 14 10 9 -4 -4 -11 -1 -16 10 -16 13 0 16 -11 16 -49 0 -43 3 -50 22 -53 12
-2 23 -9 26 -17 3 -10 -2 -13 -22 -9 -17 4 -26 1 -26 -8 0 -7 14 -14 33 -16
17 -2 30 -7 29 -12 -7 -18 21 -23 38 -6 10 10 31 16 53 15 21 0 37 3 37 7 0
13 50 9 50 -4 0 -8 5 -6 10 4 14 23 49 11 56 -19 4 -13 4 -61 1 -106 l-6 -82
13 60 c26 115 37 146 49 142 17 -6 12 -152 -8 -247 -9 -41 -20 -95 -26 -120
-9 -47 -38 -293 -34 -298 1 -1 151 -1 333 0 l330 3 -14 40 c-14 39 -42 152
-71 290 -15 72 -32 116 -85 220 -42 82 -87 134 -182 212 -74 61 -141 126 -184
178 -17 20 -60 49 -152 98 -25 14 -88 39 -140 57 -82 27 -176 78 -217 116 -6
6 -26 16 -45 23 -49 19 -243 115 -246 123 -2 4 -27 14 -55 24 -29 9 -56 20
-62 24 -5 4 -23 10 -40 14 -16 4 -52 27 -80 50 -96 82 -176 122 -307 152 -54
12 -73 22 -98 50 -16 19 -30 46 -30 59 0 14 -5 55 -12 93 -10 63 -10 72 9 113
55 115 79 175 113 283 14 42 29 67 53 87 31 25 35 35 39 88 3 50 11 71 43 118
22 32 42 60 45 63 3 3 20 25 38 50 40 57 68 135 81 227 14 89 5 107 -56 122
l-43 11 16 38 c24 54 62 179 99 327 41 166 55 404 29 495 -8 30 -22 81 -29
112 -8 32 -37 98 -65 147 -27 49 -50 93 -50 98 0 6 -9 18 -20 28 -11 10 -20
23 -20 30 0 22 -86 100 -136 123 -49 23 -51 26 -62 80 -14 66 -26 81 -107 142
-33 25 -65 50 -72 56 -15 15 -357 184 -371 184 -6 0 -12 4 -14 8 -10 26 -372
138 -422 130 -6 0 -51 -4 -101 -8z m928 -697 c-4 -11 -3 -14 5 -9 8 4 12 0 13
-11 0 -10 3 -13 6 -6 3 10 8 9 20 -2 8 -9 23 -13 32 -11 19 6 49 -37 122 -179
l51 -100 -5 -172 c-8 -236 6 -323 49 -306 8 3 15 -6 19 -24 3 -15 10 -44 15
-63 18 -69 20 -107 9 -161 -28 -139 -39 -211 -44 -294 -11 -159 -44 -293 -110
-440 -8 -16 -19 -50 -25 -75 -7 -24 -22 -55 -33 -69 -51 -57 -104 -103 -129
-113 -16 -5 -28 -14 -28 -19 0 -4 -6 -6 -12 -4 -7 3 -18 1 -24 -3 -19 -13 -62
-96 -68 -134 -8 -42 7 -59 24 -27 32 59 36 -69 4 -136 -13 -27 -28 -72 -34
-99 -18 -82 -68 -108 -264 -141 -48 -8 -93 -18 -100 -23 -14 -11 -104 -44
-125 -47 -27 -3 -51 -17 -45 -26 3 -5 -2 -6 -11 -3 -14 6 -14 8 1 19 15 11 14
13 -11 17 -28 6 -65 -19 -65 -44 0 -9 -3 -9 -9 1 -5 8 -6 21 -3 30 4 13 3 14
-9 5 -20 -16 -59 -24 -59 -12 0 6 -7 8 -15 4 -8 -3 -15 -2 -15 3 0 24 -194 43
-202 20 -2 -5 -24 -12 -49 -13 -26 -2 -51 -6 -56 -9 -14 -9 -85 41 -151 103
l-53 50 1 62 c0 35 1 74 2 88 3 42 -12 183 -24 220 -11 38 -74 110 -95 110 -7
0 -23 17 -37 38 -13 20 -39 46 -58 56 -24 13 -41 33 -53 63 -10 23 -24 43 -31
43 -7 0 -16 5 -20 12 -4 7 -3 8 4 4 7 -4 12 -2 12 3 0 6 -4 11 -10 11 -5 0
-10 5 -10 11 0 5 5 7 11 3 7 -4 10 -1 7 7 -3 8 -11 13 -17 11 -6 -1 -11 9 -11
22 0 14 -4 27 -9 30 -7 5 -17 49 -36 157 -2 9 -8 69 -14 135 -7 65 -13 139
-16 164 -2 25 -11 96 -19 158 -15 117 -11 221 8 235 8 5 7 10 -3 16 -11 7 -9
10 7 15 12 4 23 15 27 25 18 57 33 377 17 367 -4 -2 -6 11 -4 30 4 28 1 33
-12 28 -9 -3 -16 -1 -16 5 0 6 5 11 11 11 5 0 7 5 4 10 -3 6 -3 10 2 10 4 0 8
22 8 48 0 27 7 62 15 77 20 38 86 105 103 105 8 0 28 7 45 15 17 9 77 20 134
25 131 12 321 12 293 0 -19 -8 -19 -9 3 -9 12 -1 22 -5 22 -11 0 -5 9 -10 19
-10 11 0 23 -5 26 -10 3 -6 18 -7 33 -3 25 6 26 5 10 -10 -9 -9 -21 -17 -27
-17 -5 0 -25 -9 -44 -20 -19 -12 -58 -23 -86 -27 -44 -5 -49 -8 -39 -21 13
-16 101 -12 176 7 20 5 62 15 92 20 30 6 69 18 85 27 35 18 195 55 207 48 4
-3 8 0 8 6 0 7 6 5 15 -4 14 -14 34 -13 60 3 6 4 23 8 39 10 63 6 147 27 145
36 0 6 -5 9 -11 7 -5 -1 -6 3 -3 9 4 6 16 8 27 6 11 -3 32 0 46 6 20 9 26 9
30 -1 4 -14 32 -17 32 -3 0 6 21 13 48 17 26 3 52 10 57 14 16 12 75 23 133
25 29 1 55 5 59 8 11 11 13 8 6 -10z m72 -23 c3 -5 1 -10 -4 -10 -6 0 -11 5
-11 10 0 6 2 10 4 10 3 0 8 -4 11 -10z m-1200 -60 c-3 -5 -1 -10 6 -10 7 0 10
-3 6 -6 -9 -9 -28 6 -22 17 4 5 8 9 11 9 3 0 2 -4 -1 -10z m1065 -2110 c0 -5
-2 -10 -4 -10 -3 0 -8 5 -11 10 -3 6 -1 10 4 10 6 0 11 -4 11 -10z m13 -72
c-18 -54 -19 -54 -20 -13 -1 19 3 33 7 30 4 -3 10 2 14 10 13 35 12 11 -1 -27z
m105 -262 c0 -23 11 -69 25 -103 14 -35 23 -63 19 -63 -4 0 0 -5 8 -10 12 -7
12 -12 2 -22 -6 -6 -11 -21 -11 -33 1 -17 2 -17 6 -2 5 20 24 18 31 -3 3 -7 0
-10 -7 -6 -14 9 -18 -4 -25 -84 -3 -45 -2 -59 5 -45 7 15 8 9 3 -20 -8 -55
-47 -139 -95 -203 -41 -54 -234 -216 -279 -233 -13 -6 -27 -14 -30 -18 -3 -4
-27 -19 -53 -35 -87 -50 -171 -74 -307 -87 -153 -15 -271 -3 -388 38 -61 22
-72 29 -67 44 5 14 1 19 -14 19 -12 0 -20 6 -18 12 1 8 -23 21 -58 33 -100 34
-143 60 -229 137 -22 21 -44 38 -47 38 -8 0 -48 91 -60 135 -8 28 -7 29 6 11
13 -17 15 -18 15 -3 0 9 6 17 13 17 9 0 9 2 -1 9 -11 7 -10 9 3 15 22 8 9 26
-20 26 -13 0 -27 5 -31 12 -5 8 -2 9 9 5 10 -3 17 -2 17 3 0 6 -7 10 -15 10
-21 0 -18 12 9 34 19 16 22 25 18 77 -3 34 0 59 5 59 6 0 8 -20 6 -45 -3 -29
-1 -45 6 -45 6 0 11 18 11 40 0 31 3 38 15 34 8 -4 15 -13 15 -22 0 -13 3 -12
14 4 8 10 10 21 5 22 -12 5 -12 62 1 62 6 0 10 -10 10 -22 0 -50 11 -5 14 58
4 75 -1 105 -15 83 -4 -8 -10 -11 -13 -9 -2 3 2 14 10 25 14 19 15 19 20 -3 4
-12 14 -22 24 -22 9 0 29 -17 43 -37 15 -21 27 -34 27 -29 0 5 7 3 15 -4 8 -7
12 -17 8 -23 -3 -5 -1 -7 4 -4 6 4 18 -2 28 -13 19 -21 7 -28 -13 -8 -9 9 -12
9 -12 0 0 -13 1 -13 39 -17 13 -1 31 -11 40 -22 9 -10 34 -28 56 -38 22 -11
42 -22 45 -25 3 -3 39 -21 80 -41 62 -31 93 -38 180 -47 100 -11 213 -5 310
14 39 8 157 60 176 77 136 130 297 293 327 329 36 47 62 63 51 33 -4 -8 -1
-15 5 -15 6 0 11 10 12 23 1 41 18 -32 17 -77z m-1509 -2 c19 -25 19 -54 -1
-54 -6 0 -7 11 -4 25 5 18 2 25 -8 25 -8 0 -16 7 -20 15 -9 24 11 17 33 -11z
m-66 -5 c5 -3 2 -9 -5 -12 -9 -3 -14 3 -15 15 -1 11 1 16 5 12 4 -5 11 -12 15
-15z m62 -89 c3 -5 -1 -10 -9 -10 -9 0 -16 5 -16 10 0 6 4 10 9 10 6 0 13 -4
16 -10z m35 -5 c0 -8 -2 -15 -4 -15 -2 0 -6 7 -10 15 -3 8 -1 15 4 15 6 0 10
-7 10 -15z m-36 -59 c-3 -9 -10 -16 -15 -16 -14 0 -11 28 4 33 16 6 19 3 11
-17z m-77 -63 c-3 -10 -5 -4 -5 12 0 17 2 24 5 18 2 -7 2 -21 0 -30z m0 -245
c-3 -8 -6 -5 -6 6 -1 11 2 17 5 13 3 -3 4 -12 1 -19z m2213 -334 c0 -8 -4 -12
-10 -9 -5 3 -10 10 -10 16 0 5 5 9 10 9 6 0 10 -7 10 -16z m-2457 -21 c-4 -10
-2 -14 4 -10 6 4 13 -1 15 -11 4 -12 -2 -17 -20 -19 -17 -1 -26 5 -30 19 -2
10 -10 17 -16 15 -6 -3 -17 2 -24 9 -11 12 -6 14 32 14 38 0 44 -3 39 -17z
m-79 -38 c-4 -8 -10 -12 -15 -9 -11 6 -2 24 11 24 5 0 7 -7 4 -15z m2636 -6
c0 -6 -4 -7 -10 -4 -5 3 -10 11 -10 16 0 6 5 7 10 4 6 -3 10 -11 10 -16z m170
-9 c0 -5 -4 -10 -10 -10 -5 0 -10 5 -10 10 0 6 5 10 10 10 6 0 10 -4 10 -10z
m-2853 -32 c-3 -8 -6 -5 -6 6 -1 11 2 17 5 13 3 -3 4 -12 1 -19z m140 0 c-3
-8 -6 -5 -6 6 -1 11 2 17 5 13 3 -3 4 -12 1 -19z m2853 -8 c0 -5 -4 -10 -10
-10 -5 0 -10 5 -10 10 0 6 5 10 10 10 6 0 10 -4 10 -10z m-142 -55 c-2 -51 -3
-53 -19 -39 -10 9 -15 22 -12 30 3 8 0 14 -6 14 -15 0 -14 23 1 38 27 27 38
13 36 -43z m132 -8 c0 -5 -4 -5 -10 -2 -5 3 -10 14 -10 23 0 15 2 15 10 2 5
-8 10 -19 10 -23z m-2743 -29 c-3 -8 -6 -5 -6 6 -1 11 2 17 5 13 3 -3 4 -12 1
-19z m-293 -107 c2 -28 -1 -56 -6 -63 -5 -9 -8 -7 -8 7 0 12 -3 16 -8 9 -12
-18 -50 -35 -56 -25 -3 5 1 11 9 15 8 3 15 13 15 22 0 10 5 14 15 10 8 -3 15
-4 15 -2 0 3 3 12 7 22 4 11 3 15 -5 10 -8 -5 -8 1 0 24 14 40 20 33 22 -29z
m196 47 c0 -4 -16 -10 -35 -14 -21 -4 -35 -12 -35 -21 0 -8 -5 -11 -11 -7 -6
3 -14 2 -18 -3 -7 -13 -51 2 -51 17 0 5 9 10 20 10 11 0 20 5 20 11 0 5 4 8 9
5 5 -4 20 -2 33 3 27 10 68 9 68 -1z m-157 -55 c7 -9 5 -13 -7 -13 -11 0 -16
8 -15 28 0 15 3 21 6 12 3 -8 10 -21 16 -27z m-3 -63 c0 -5 -4 -10 -10 -10 -5
0 -10 5 -10 10 0 6 5 10 10 10 6 0 10 -4 10 -10z m-667 -150 c-3 -11 -9 -20
-14 -20 -10 0 -12 33 -3 43 12 12 22 -3 17 -23z m-46 -32 c-3 -8 -6 -5 -6 6
-1 11 2 17 5 13 3 -3 4 -12 1 -19z m8 -37 c3 -5 1 -12 -5 -16 -5 -3 -10 1 -10
9 0 18 6 21 15 7z m4382 -183 c-3 -8 -6 -5 -6 6 -1 11 2 17 5 13 3 -3 4 -12 1
-19z m-4792 -128 c-6 -26 -4 -30 14 -30 11 0 23 -5 27 -12 5 -8 2 -9 -10 -5
-10 4 -15 3 -11 -3 3 -6 12 -10 18 -10 18 0 65 -175 54 -203 -3 -6 -6 -3 -6 8
-1 17 -3 17 -11 5 -8 -13 -10 -12 -10 3 0 11 -6 17 -17 15 -10 -2 -18 4 -19
12 0 8 -2 25 -2 38 -1 14 -6 20 -13 16 -6 -3 -9 -15 -6 -25 3 -11 1 -19 -4
-19 -5 0 -9 17 -9 37 0 27 -3 34 -11 26 -6 -6 -17 -9 -25 -6 -19 7 -5 33 18
33 17 0 18 3 9 14 -8 10 -9 16 -1 21 5 3 10 14 10 23 0 12 -3 13 -12 4 -7 -7
-16 -12 -22 -12 -6 0 -5 5 2 12 8 8 8 15 1 24 -7 8 -7 14 0 18 6 4 8 13 4 21
-3 8 -1 15 5 15 6 0 13 -6 15 -12 3 -8 6 -6 6 5 1 9 4 17 7 17 3 0 3 -13 -1
-30z m-156 -175 c11 -38 26 -96 35 -128 9 -32 16 -60 16 -62 0 -8 -25 0 -32
10 -4 5 -11 -2 -17 -15 -9 -24 -10 -23 -10 10 -1 38 -47 235 -62 262 -12 24
-12 81 1 73 6 -3 10 2 11 12 1 22 32 -66 58 -162z m61 154 c0 -6 -4 -7 -10 -4
-5 3 -10 11 -10 16 0 6 5 7 10 4 6 -3 10 -11 10 -16z m365 -129 c3 -5 1 -10
-4 -10 -6 0 -11 5 -11 10 0 6 2 10 4 10 3 0 8 -4 11 -10z m-255 -80 c0 -5 -2
-10 -4 -10 -3 0 -8 5 -11 10 -3 6 -1 10 4 10 6 0 11 -4 11 -10z m-135 -160 c3
-5 1 -10 -4 -10 -6 0 -11 5 -11 10 0 6 2 10 4 10 3 0 8 -4 11 -10z m40 -29
c-6 -5 -25 10 -25 20 0 5 6 4 14 -3 8 -7 12 -15 11 -17z m1295 -26 c0 -17 -25
-20 -35 -5 -4 6 1 7 11 3 12 -4 15 -3 10 5 -4 7 -2 12 3 12 6 0 11 -7 11 -15z
m-1305 -24 c3 -5 2 -12 -3 -15 -5 -3 -9 1 -9 9 0 17 3 19 12 6z"/>
<path d="M3621 3984 c-27 -7 -85 -18 -128 -23 -97 -13 -226 -37 -275 -51 -33
-9 -38 -15 -38 -40 0 -21 -5 -30 -16 -30 -11 0 -14 -8 -12 -27 3 -28 4 -28 69
-27 37 1 129 10 205 20 196 27 308 25 359 -4 22 -12 52 -27 68 -33 15 -6 27
-15 27 -21 0 -5 4 -7 9 -4 12 8 -26 146 -47 171 -35 42 -64 65 -85 69 -55 12
-89 11 -136 0z"/>
<path d="M2389 3970 c-62 -11 -151 -69 -186 -121 -21 -32 -28 -56 -30 -100 -2
-51 0 -59 16 -59 10 0 24 7 31 15 7 8 19 15 26 15 7 0 29 9 49 20 53 30 141
40 360 40 178 0 203 2 228 19 23 15 25 20 13 24 -9 4 -16 13 -16 22 0 29 -32
65 -69 76 -32 9 -84 13 -321 20 -75 3 -88 9 -59 25 27 15 24 15 -42 4z"/>
<path d="M3407 3716 c-22 -8 -49 -24 -61 -35 -13 -12 -29 -20 -37 -18 -8 2
-11 2 -6 0 4 -3 7 -10 7 -15 0 -6 -3 -9 -6 -5 -8 8 -42 -28 -41 -45 2 -50 -4
-79 -15 -73 -7 4 -4 -1 6 -9 11 -9 21 -27 22 -42 3 -30 46 -75 89 -91 48 -19
109 -28 101 -14 -4 6 -1 11 8 11 19 0 19 1 6 34 -9 25 -9 26 34 26 23 0 69 11
102 24 49 20 71 23 120 19 55 -5 60 -4 60 15 0 12 -5 18 -13 15 -7 -3 -13 0
-13 6 0 6 -6 11 -13 11 -7 0 -33 20 -57 44 -82 81 -110 91 -236 91 l-111 0 36
25 c31 22 47 25 117 25 53 0 87 -5 97 -14 9 -7 22 -11 29 -9 8 3 4 9 -11 17
-36 20 -169 24 -214 7z m-17 -133 c0 -43 4 -50 33 -70 38 -26 46 -27 82 -11
31 14 55 55 55 93 l0 27 31 -19 c48 -27 56 -46 35 -78 -40 -61 -143 -72 -241
-26 -81 38 -92 52 -68 85 16 23 47 44 66 45 4 1 7 -20 7 -46z"/>
<path d="M2642 3672 c10 -4 -17 -8 -60 -9 -89 -2 -136 -22 -242 -103 -36 -28
-72 -56 -81 -63 -9 -7 -19 -22 -23 -34 -6 -19 -4 -23 13 -23 11 0 23 5 26 10
10 16 96 11 159 -10 33 -11 81 -20 107 -20 42 0 48 -2 42 -17 -3 -10 -13 -26
-22 -37 -15 -18 -14 -18 19 -12 64 13 210 59 210 67 0 4 8 15 17 24 15 16 15
18 0 26 -14 8 -15 13 -5 29 10 15 10 27 0 52 -8 23 -9 34 -1 39 19 11 -48 66
-96 78 -51 13 -93 15 -63 3z m96 -84 c44 -42 17 -78 -82 -112 -99 -33 -218 -7
-232 50 -6 22 -2 32 21 51 32 28 49 26 53 -8 2 -14 13 -38 26 -53 20 -25 27
-28 58 -22 55 10 78 34 81 84 2 40 3 43 27 37 14 -4 35 -16 48 -27z"/>
<path d="M2345 3605 c-16 -13 -27 -26 -24 -29 6 -6 19 3 43 32 24 28 19 28
-19 -3z"/>
<path d="M3145 3610 c-3 -5 -1 -10 4 -10 6 0 11 5 11 10 0 6 -2 10 -4 10 -3 0
-8 -4 -11 -10z"/>
<path d="M3184 3568 c0 -17 -5 -33 -12 -36 -7 -2 -12 5 -12 18 0 12 -4 19 -9
15 -10 -6 -8 -39 3 -66 4 -9 6 -22 4 -30 -2 -8 3 -13 10 -11 6 1 12 -6 12 -16
0 -18 29 -52 43 -52 3 0 5 36 4 80 -1 71 -3 77 -15 57 -8 -13 -11 -15 -8 -4 7
21 -4 77 -14 77 -4 0 -7 -14 -6 -32z m23 -105 c-3 -10 -5 -4 -5 12 0 17 2 24
5 18 2 -7 2 -21 0 -30z"/>
<path d="M3116 3571 c-4 -7 -5 -15 -2 -18 9 -9 19 4 14 18 -4 11 -6 11 -12 0z"/>
<path d="M2862 3502 c-12 -15 -22 -31 -23 -37 -4 -48 -3 -72 4 -68 4 2 7 -2 7
-9 1 -7 7 2 15 20 8 17 17 32 20 32 3 0 4 -4 0 -9 -3 -5 -1 -12 5 -16 6 -4 10
14 10 49 0 30 -3 57 -8 60 -4 2 -17 -8 -30 -22z"/>
<path d="M2012 3380 c0 -14 2 -19 5 -12 2 6 2 18 0 25 -3 6 -5 1 -5 -13z"/>
<path d="M2852 3204 c-14 -15 -65 -124 -77 -164 -4 -14 -13 -33 -20 -43 -24
-34 2 -76 68 -112 15 -9 27 -12 27 -8 0 5 4 2 9 -6 5 -7 15 -11 22 -9 9 4 3
10 -16 19 -85 37 -112 82 -77 128 10 14 31 60 47 101 15 41 32 80 37 87 13 17
-5 23 -20 7z"/>
<path d="M3194 3146 c14 -19 26 -38 26 -42 0 -4 8 -17 19 -28 24 -27 36 -90
19 -103 -7 -6 -42 -20 -78 -32 -36 -12 -76 -30 -90 -40 -14 -10 -43 -23 -65
-30 -22 -7 -49 -16 -60 -21 -11 -5 -45 -16 -75 -25 -78 -24 -317 -143 -324
-161 -12 -31 -6 -92 9 -98 11 -4 14 -13 9 -33 -6 -25 -5 -26 7 -11 12 14 22
15 68 7 60 -12 141 -49 171 -79 27 -27 75 -33 214 -28 115 5 124 7 196 42 41
21 104 58 140 82 36 24 81 52 102 61 34 15 36 18 31 52 -3 20 -15 46 -26 58
-21 23 -95 53 -133 53 -24 0 -41 16 -23 22 16 5 -1 39 -19 36 -18 -3 -23 25
-10 54 6 12 1 21 -14 32 -12 9 -17 16 -10 16 12 0 28 45 24 70 -6 35 -71 144
-100 168 -30 23 -34 12 -8 -22z m19 -482 c51 -5 74 -11 70 -18 -3 -6 0 -5 8 2
17 15 33 16 23 0 -5 -8 -2 -9 10 -5 10 4 15 3 11 -3 -3 -6 2 -10 11 -10 10 0
14 -3 10 -7 -4 -5 -76 -11 -159 -14 -84 -3 -228 -12 -320 -19 -148 -11 -171
-11 -184 2 -23 24 6 44 79 53 35 4 86 11 113 15 67 10 234 12 328 4z m204 -30
c2 -5 -8 -10 -21 -10 -20 -2 -22 1 -13 12 13 14 29 14 34 -2z m-767 -39 c0 -8
-4 -15 -10 -15 -5 0 -10 7 -10 15 0 8 5 15 10 15 6 0 10 -7 10 -15z"/>
<path d="M2816 2930 c14 -14 104 -25 104 -13 0 13 -34 23 -79 23 -23 0 -32 -3
-25 -10z"/>
<path d="M3305 2931 c-3 -5 -1 -12 5 -16 5 -3 10 1 10 9 0 18 -6 21 -15 7z"/>
<path d="M3020 2355 c0 -16 -6 -25 -15 -25 -8 0 -14 -3 -13 -7 4 -14 -13 -53
-23 -53 -5 0 -9 -4 -9 -9 0 -12 31 -8 57 7 13 7 34 10 49 6 27 -7 27 -6 21 32
-4 21 -7 47 -7 57 0 12 -8 17 -30 17 -25 0 -30 -4 -30 -25z"/>
<path d="M3780 2160 c-13 -8 -12 -10 3 -10 9 0 17 5 17 10 0 12 -1 12 -20 0z"/>
<path d="M2381 2118 c-1 -48 12 -65 22 -28 3 12 1 18 -5 14 -6 -4 -8 -1 -6 7
3 8 13 13 23 11 14 -3 15 -1 4 11 -8 8 -17 13 -21 11 -3 -2 -9 2 -11 8 -3 7
-6 -8 -6 -34z"/>
<path d="M3770 2100 c0 -5 5 -10 11 -10 5 0 7 5 4 10 -3 6 -8 10 -11 10 -2 0
-4 -4 -4 -10z"/>
<path d="M2423 2094 c4 -4 2 -13 -4 -20 -12 -14 -4 -34 13 -34 5 0 7 8 4 17
-4 9 -2 20 4 23 8 5 5 10 -6 14 -10 4 -15 4 -11 0z"/>
<path d="M3790 2055 c0 -8 9 -24 20 -35 20 -20 20 -20 17 15 -1 26 -7 35 -19
35 -10 0 -18 -7 -18 -15z"/>
<path d="M3845 2011 c0 -24 4 -38 13 -38 9 0 11 9 6 31 -9 46 -19 50 -19 7z"/>
<path d="M2367 2013 c-3 -4 1 -14 9 -20 7 -7 15 -9 18 -4 3 5 -1 14 -8 20 -8
7 -16 8 -19 4z"/>
<path d="M3775 1990 c-7 -11 42 -26 53 -16 7 8 -17 26 -35 26 -6 0 -15 -4 -18
-10z"/>
<path d="M2340 1951 c0 -12 5 -21 10 -21 6 0 10 6 10 14 0 8 -4 18 -10 21 -5
3 -10 -3 -10 -14z"/>
<path d="M3853 1946 c-10 -11 -9 -15 2 -20 10 -4 15 1 15 14 0 23 -1 24 -17 6z"/>
<path d="M741 454 c0 -11 3 -14 6 -6 3 7 2 16 -1 19 -3 4 -6 -2 -5 -13z"/>
<path d="M4580 1254 c0 -10 -5 -12 -12 -7 -23 14 -46 13 -52 -2 -3 -8 -12 -15
-20 -15 -10 0 -14 -10 -13 -34 2 -31 17 -42 17 -13 1 19 38 59 49 52 15 -8 2
-33 -20 -40 -20 -7 -27 -35 -9 -35 6 0 10 5 10 11 0 5 4 8 9 4 6 -3 15 3 20
12 10 17 12 17 26 -1 14 -18 15 -16 15 32 0 29 -4 52 -10 52 -5 0 -10 -7 -10
-16z"/>
<path d="M2140 1246 c0 -9 7 -16 16 -16 17 0 14 22 -4 28 -7 2 -12 -3 -12 -12z"/>
<path d="M4445 1249 c-4 -6 -3 -15 3 -21 6 -6 11 -4 15 6 7 18 -9 31 -18 15z"/>
<path d="M4885 1241 c-3 -5 -1 -12 5 -16 5 -3 10 1 10 9 0 18 -6 21 -15 7z"/>
<path d="M2118 1178 c8 -8 20 -8 44 -1 l33 11 -44 1 c-34 1 -42 -2 -33 -11z"/>
<path d="M4885 1180 c3 -5 8 -10 11 -10 2 0 4 5 4 10 0 6 -5 10 -11 10 -5 0
-7 -4 -4 -10z"/>
<path d="M2285 1156 c-27 -13 -75 -29 -105 -36 -30 -7 -68 -21 -84 -31 -17
-10 -50 -21 -75 -25 -24 -4 -56 -13 -70 -20 -14 -8 -34 -14 -43 -14 -10 0 -18
-5 -18 -11 0 -7 9 -9 23 -6 12 3 54 9 92 12 39 4 86 14 105 23 19 9 76 30 125
47 50 17 90 37 90 44 0 7 9 19 19 27 30 21 -1 16 -59 -10z"/>
<path d="M4775 1170 c-3 -5 -2 -10 4 -10 5 0 13 5 16 10 3 6 2 10 -4 10 -5 0
-13 -4 -16 -10z"/>
<path d="M4745 1150 c-3 -5 -1 -10 4 -10 6 0 11 5 11 10 0 6 -2 10 -4 10 -3 0
-8 -4 -11 -10z"/>
<path d="M4197 1122 c-14 -3 -18 -10 -14 -29 6 -32 -5 -36 -159 -62 -67 -12
-148 -32 -180 -46 -62 -26 -57 -31 14 -15 24 6 71 13 105 15 101 9 231 45 277
78 21 15 23 19 10 28 -11 8 -12 12 -2 16 33 13 -7 25 -51 15z"/>
<path d="M2083 1106 c0 -8 6 -12 14 -9 7 3 10 9 7 14 -8 14 -21 11 -21 -5z"/>
<path d="M3865 1099 c-62 -21 -104 -42 -109 -55 -5 -13 17 -10 39 6 6 4 36 16
68 26 31 10 57 21 57 26 0 10 -17 9 -55 -3z"/>
<path d="M1910 1071 c0 -6 4 -13 10 -16 6 -3 7 1 4 9 -7 18 -14 21 -14 7z"/>
<path d="M4900 1020 c-13 -8 -12 -10 3 -10 9 0 17 5 17 10 0 12 -1 12 -20 0z"/>
<path d="M2010 1002 c-29 -10 -39 -17 -27 -20 22 -5 87 17 87 29 0 12 -6 11
-60 -9z"/>
<path d="M1770 1000 c0 -5 5 -10 11 -10 5 0 7 5 4 10 -3 6 -8 10 -11 10 -2 0
-4 -4 -4 -10z"/>
<path d="M1340 990 c0 -5 5 -10 11 -10 5 0 7 5 4 10 -3 6 -8 10 -11 10 -2 0
-4 -4 -4 -10z"/>
<path d="M1810 982 c0 -15 25 -21 41 -11 9 5 9 9 2 9 -6 0 -18 3 -27 6 -9 3
-16 2 -16 -4z"/>
<path d="M1740 943 c0 -15 2 -15 24 -7 22 9 20 20 -4 20 -11 0 -20 -6 -20 -13z"/>
<path d="M1701 891 c-10 -6 -10 -10 -1 -16 13 -8 24 -1 19 14 -3 6 -10 7 -18
2z"/>
<path d="M1682 830 c0 -19 2 -27 5 -17 2 9 2 25 0 35 -3 9 -5 1 -5 -18z"/>
<path d="M1675 777 c-4 -10 -5 -21 -1 -24 10 -10 18 4 13 24 -4 17 -4 17 -12
0z"/>
<path d="M4850 781 c-19 -4 -53 -17 -75 -29 -36 -20 -37 -21 -10 -16 17 4 42
13 57 20 15 8 34 14 42 14 8 0 18 5 21 10 3 6 5 9 3 9 -2 -1 -19 -4 -38 -8z"/>
<path d="M4698 723 c7 -3 16 -2 19 1 4 3 -2 6 -13 5 -11 0 -14 -3 -6 -6z"/>
<path d="M3400 648 c-53 -15 -58 -27 -6 -14 25 7 48 15 52 19 9 9 -2 8 -46 -5z"/>
<path d="M990 550 c0 -5 9 -10 20 -10 11 0 20 5 20 10 0 6 -9 10 -20 10 -11 0
-20 -4 -20 -10z"/>
<path d="M3765 453 c-38 -10 -68 -24 -62 -29 3 -3 25 0 49 7 66 19 78 38 13
22z"/>
<path d="M2048 422 c-99 -24 -137 -42 -88 -42 31 0 212 48 224 60 15 15 -14
11 -136 -18z"/>
<path d="M4040 409 c0 -5 5 -7 10 -4 6 3 10 8 10 11 0 2 -4 4 -10 4 -5 0 -10
-5 -10 -11z"/>
<path d="M2265 376 c-44 -8 -93 -19 -108 -25 -16 -6 -52 -14 -80 -17 -29 -3
-56 -11 -62 -16 -15 -15 164 -3 275 18 52 10 139 18 192 18 76 1 95 4 85 13
-19 19 -209 25 -302 9z"/>
<path d="M2705 350 c3 -5 8 -10 11 -10 2 0 4 5 4 10 0 6 -5 10 -11 10 -5 0 -7
-4 -4 -10z"/>
<path d="M1943 333 c9 -2 23 -2 30 0 6 3 -1 5 -18 5 -16 0 -22 -2 -12 -5z"/>
<path d="M2356 175 c-27 -8 -56 -21 -65 -31 -15 -15 -13 -16 24 -9 22 4 43 12
47 18 3 5 19 16 35 23 36 16 21 16 -41 -1z"/>
<path d="M1975 90 c3 -5 8 -10 11 -10 2 0 4 5 4 10 0 6 -5 10 -11 10 -5 0 -7
-4 -4 -10z"/>
<path d="M1514 78 c9 -5 23 -5 32 0 12 6 7 9 -16 9 -23 0 -28 -3 -16 -9z"/>
</g>
</svg>
